<?xml version="1.0" encoding="UTF-8" standalone="no"?>
<svg
   version="1.0"
   width="76mm"
   height="36mm"
   id="svg850"
   sodipodi:docname="Activ IndustrieLogo Mastervorlage.svg"
   inkscape:version="1.3.2 (091e20e, 2023-11-25, custom)"
   inkscape:export-filename="Activ IndustrieLogo Mastervorlage_neu.png"
   inkscape:export-xdpi="306.13687"
   inkscape:export-ydpi="306.13687"
   xmlns:inkscape="http://www.inkscape.org/namespaces/inkscape"
   xmlns:sodipodi="http://sodipodi.sourceforge.net/DTD/sodipodi-0.dtd"
   xmlns="http://www.w3.org/2000/svg"
   xmlns:svg="http://www.w3.org/2000/svg"
   xmlns:rdf="http://www.w3.org/1999/02/22-rdf-syntax-ns#"
   xmlns:cc="http://creativecommons.org/ns#"
   xmlns:dc="http://purl.org/dc/elements/1.1/">
  <metadata
     id="metadata854">
    <rdf:RDF>
      <cc:Work
         rdf:about="">
        <dc:format>image/svg+xml</dc:format>
        <dc:type
           rdf:resource="http://purl.org/dc/dcmitype/StillImage" />
      </cc:Work>
    </rdf:RDF>
  </metadata>
  <sodipodi:namedview
     pagecolor="#ffffff"
     bordercolor="#666666"
     borderopacity="1"
     objecttolerance="10"
     gridtolerance="10"
     guidetolerance="10"
     inkscape:pageopacity="0"
     inkscape:pageshadow="2"
     inkscape:window-width="1280"
     inkscape:window-height="1377"
     id="namedview852"
     showgrid="false"
     inkscape:zoom="2.478728"
     inkscape:cx="139.18429"
     inkscape:cy="-90.570646"
     inkscape:window-x="1912"
     inkscape:window-y="-8"
     inkscape:window-maximized="0"
     inkscape:current-layer="svg850"
     inkscape:showpageshadow="2"
     inkscape:pagecheckerboard="0"
     inkscape:deskcolor="#d1d1d1"
     inkscape:document-units="mm" />
  <defs
     id="defs816">
    <rect
       x="15.935593"
       y="85.326021"
       width="273.7291"
       height="50.025658"
       id="rect10" />
    <pattern
       id="EMFhbasepattern"
       patternUnits="userSpaceOnUse"
       width="6"
       height="6"
       x="0"
       y="0" />
  </defs>
  <path
     style="fill:#6492a7;fill-rule:evenodd;fill-opacity:1;stroke:none;"
     d="  M 112.07917,42.559685   L 112.15917,41.039696   L 112.23917,39.519707   L 112.47917,37.999719   L 112.71917,36.47973   L 113.03916,35.03974   L 113.51916,33.599751   L 113.99916,32.159762   L 114.55915,30.799772   L 115.11915,29.439782   L 115.83914,28.159791   L 116.55914,26.879801   L 117.35913,25.67981   L 118.23912,24.479819   L 119.11912,23.359827   L 120.15911,22.239835   L 121.1191,21.199843   L 122.1591,20.159851   L 123.27909,19.199858   L 124.47908,18.319864   L 125.67907,17.439871   L 126.95906,16.719876   L 128.23905,15.999881   L 129.51904,15.279887   L 130.87903,14.719891   L 132.31902,14.159895   L 133.75901,13.679899   L 135.199,13.279902   L 136.63899,12.959904   L 138.15898,12.639906   L 139.75896,12.479908   L 141.27895,12.399908   L 142.87894,12.319909   L 144.47893,12.399908   L 145.99892,12.479908   L 147.51891,12.639906   L 149.0389,12.959904   L 150.55888,13.279902   L 151.99887,13.679899   L 153.43886,14.159895   L 154.79885,14.719891   L 156.15884,15.279887   L 157.51883,15.999881   L 158.79882,16.719876   L 160.07881,17.439871   L 161.27881,18.319864   L 162.3988,19.199858   L 163.51879,20.159851   L 164.63878,21.199843   L 165.59877,22.239835   L 166.55877,23.359827   L 167.51876,24.479819   L 168.31875,25.67981   L 169.11875,26.879801   L 169.91874,28.159791   L 170.55874,29.439782   L 171.19873,30.799772   L 171.75873,32.159762   L 172.23872,33.599751   L 172.63872,35.03974   L 172.95872,36.47973   L 173.27872,37.999719   L 173.43872,39.519707   L 173.59871,41.039696   L 173.59871,42.559685   L 173.59871,44.159673   L 173.43872,45.679662   L 173.27872,47.19965   L 172.95872,48.63964   L 172.63872,50.159628   L 172.23872,51.519618   L 171.75873,52.959608   L 171.19873,54.319598   L 170.55874,55.679588   L 169.91874,56.959578   L 169.11875,58.239569   L 168.31875,59.519559   L 167.51876,60.639551   L 166.55877,61.839542   L 165.59877,62.879534   L 164.63878,63.999526   L 163.51879,64.959519   L 162.3988,65.919512   L 161.27881,66.799505   L 160.07881,67.679499   L 158.79882,68.479493   L 157.51883,69.199487   L 156.15884,69.839483   L 154.79885,70.479478   L 153.43886,71.039474   L 151.99887,71.51947   L 150.55888,71.919467   L 149.0389,72.239465   L 147.51891,72.479463   L 145.99892,72.719461   L 144.47893,72.799461   L 142.87894,72.87946   L 141.27895,72.799461   L 139.75896,72.719461   L 138.15898,72.479463   L 136.63899,72.239465   L 135.199,71.919467   L 133.75901,71.51947   L 132.31902,71.039474   L 130.87903,70.479478   L 129.51904,69.839483   L 128.23905,69.199487   L 126.95906,68.479493   L 125.67907,67.679499   L 124.47908,66.799505   L 123.27909,65.919512   L 122.1591,64.959519   L 121.1191,63.999526   L 120.15911,62.879534   L 119.11912,61.839542   L 118.23912,60.639551   L 117.35913,59.519559   L 116.55914,58.239569   L 115.83914,56.959578   L 115.11915,55.679588   L 114.55915,54.319598   L 113.99916,52.959608   L 113.51916,51.519618   L 113.03916,50.159628   L 112.71917,48.63964   L 112.47917,47.19965   L 112.23917,45.679662   L 112.15917,44.159673   z "
     id="path818" />
  <path
     style="fill:#ffffff;fill-rule:evenodd;fill-opacity:1;stroke:none;"
     d="  M 118.63912,42.719684   L 118.63912,41.439693   L 118.71912,40.319701   L 118.87912,39.11971   L 119.11912,37.919719   L 119.35912,36.799727   L 119.67911,35.679736   L 120.07911,34.559744   L 120.47911,33.439752   L 120.9591,32.39976   L 121.5191,31.439767   L 122.0791,30.399775   L 122.71909,29.439782   L 123.35909,28.559788   L 124.07908,27.599796   L 124.87907,26.799801   L 125.67907,25.919808   L 126.47906,25.119814   L 127.35906,24.399819   L 128.23905,23.679825   L 129.19904,23.039829   L 130.15904,22.399834   L 131.19903,21.839838   L 132.23902,21.359842   L 133.27901,20.879845   L 134.399,20.479848   L 135.519,20.079851   L 136.63899,19.759854   L 137.83898,19.519855   L 138.95897,19.279857   L 140.23896,19.119858   L 141.43895,19.039859   L 142.63894,19.039859   L 143.91893,19.039859   L 145.11893,19.119858   L 146.31892,19.279857   L 147.51891,19.519855   L 148.7189,19.759854   L 149.83889,20.079851   L 150.95888,20.479848   L 152.07887,20.879845   L 153.11887,21.359842   L 154.15886,21.839838   L 155.11885,22.399834   L 156.15884,23.039829   L 157.03884,23.679825   L 157.99883,24.399819   L 158.87882,25.119814   L 159.67882,25.919808   L 160.47881,26.799801   L 161.27881,27.599796   L 161.9188,28.559788   L 162.6388,29.439782   L 163.27879,30.399775   L 163.83879,31.439767   L 164.39878,32.39976   L 164.79878,33.439752   L 165.27878,34.559744   L 165.59877,35.679736   L 165.99877,36.799727   L 166.23877,37.919719   L 166.47877,39.11971   L 166.63877,40.319701   L 166.71877,41.439693   L 166.71877,42.719684   L 166.71877,43.919675   L 166.63877,45.119666   L 166.47877,46.319657   L 166.23877,47.439649   L 165.99877,48.63964   L 165.59877,49.759631   L 165.27878,50.879623   L 164.79878,51.919615   L 164.39878,52.959608   L 163.83879,53.9996   L 163.27879,54.959593   L 162.6388,55.999585   L 161.9188,56.879579   L 161.27881,57.759572   L 160.47881,58.639566   L 159.67882,59.43956   L 158.87882,60.239554   L 157.99883,60.959548   L 157.03884,61.679543   L 156.15884,62.319538   L 155.11885,62.959534   L 154.15886,63.519529   L 153.11887,64.079525   L 152.07887,64.559522   L 150.95888,64.959519   L 149.83889,65.359516   L 148.7189,65.679513   L 147.51891,65.919512   L 146.31892,66.15951   L 145.11893,66.239509   L 143.91893,66.319509   L 142.63894,66.399508   L 141.43895,66.319509   L 140.23896,66.239509   L 138.95897,66.15951   L 137.83898,65.919512   L 136.63899,65.679513   L 135.519,65.359516   L 134.399,64.959519   L 133.27901,64.559522   L 132.23902,64.079525   L 131.19903,63.519529   L 130.15904,62.959534   L 129.19904,62.319538   L 128.23905,61.679543   L 127.35906,60.959548   L 126.47906,60.239554   L 125.67907,59.43956   L 124.87907,58.639566   L 124.07908,57.759572   L 123.35909,56.879579   L 122.71909,55.999585   L 122.0791,54.959593   L 121.5191,53.9996   L 120.9591,52.959608   L 120.47911,51.919615   L 120.07911,50.879623   L 119.67911,49.759631   L 119.35912,48.63964   L 119.11912,47.439649   L 118.87912,46.319657   L 118.71912,45.119666   L 118.63912,43.919675   z "
     id="path820" />
  <path
     style="fill:#6492a7;fill-rule:evenodd;fill-opacity:1;stroke:none;"
     d="  M 150.79888,39.039711   L 150.71888,51.999615   L 150.71888,52.239613   L 150.71888,52.479611   L 150.71888,52.63961   L 150.79888,52.799609   L 150.79888,52.959608   L 150.87888,53.039607   L 150.87888,53.199606   L 150.95888,53.279605   L 151.03888,53.519604   L 151.19888,53.679602   L 151.35888,53.919601   L 151.51888,54.079599   L 151.67888,54.239598   L 151.91887,54.319598   L 152.15887,54.479596   L 152.39887,54.559596   L 152.55887,54.639595   L 152.79887,54.719595   L 153.03887,54.719595   L 153.27886,54.719595   L 153.51886,54.719595   L 153.75886,54.719595   L 153.99886,54.639595   L 154.23886,54.479596   L 154.39886,54.479596   L 154.55886,54.319598   L 154.63885,54.239598   L 154.79885,54.159599   L 154.95885,53.9996   L 155.03885,53.919601   L 155.19885,53.759602   L 155.27885,53.599603   L 155.35885,53.439604   L 155.51885,53.279605   L 155.59885,53.039607   L 155.67885,52.879608   L 155.67885,52.719609   L 155.75885,52.559611   L 155.75885,52.399612   L 155.75885,52.159614   L 156.55884,38.479715   L 156.55884,38.239717   L 156.55884,37.919719   L 156.55884,37.679721   L 156.55884,37.439723   L 156.47884,37.199724   L 156.39884,36.959726   L 156.39884,36.799727   L 156.31884,36.559729   L 156.15884,36.39973   L 156.07884,36.159732   L 155.91885,35.999733   L 155.75885,35.759735   L 155.59885,35.599736   L 155.35885,35.359738   L 155.11885,35.199739   L 154.87885,35.03974   L 143.75894,26.799801   L 143.43894,26.559803   L 143.11894,26.479804   L 142.95894,26.399804   L 142.79894,26.319805   L 142.63894,26.319805   L 142.39895,26.239806   L 142.23895,26.239806   L 142.07895,26.239806   L 141.83895,26.239806   L 141.67895,26.319805   L 141.51895,26.319805   L 141.35895,26.399804   L 141.11895,26.479804   L 140.95896,26.559803   L 140.79896,26.639803   L 140.55896,26.799801   L 140.39896,26.9598   L 140.15896,27.0398   L 140.07896,27.279798   L 139.91896,27.439797   L 139.83896,27.679795   L 139.75896,27.839794   L 139.67897,28.079792   L 139.59897,28.31979   L 139.59897,28.559788   L 139.51897,28.799787   L 139.59897,29.039785   L 139.59897,29.279783   L 139.67897,29.519781   L 139.83896,29.75978   L 139.91896,29.919778   L 139.99896,30.079777   L 140.07896,30.159777   L 140.15896,30.239776   L 140.31896,30.399775   L 140.39896,30.559774   L 140.55896,30.719772   L 140.63896,30.799772   z  M 137.67898,45.119666   L 137.59898,57.99957   L 137.59898,58.239569   L 137.67898,58.479567   L 137.67898,58.639566   L 137.75898,58.799564   L 137.75898,58.959563   L 137.75898,59.039563   L 137.83898,59.119562   L 137.83898,59.279561   L 137.99898,59.519559   L 138.07898,59.679558   L 138.23898,59.919556   L 138.39897,60.079555   L 138.63897,60.239554   L 138.79897,60.399553   L 139.03897,60.479552   L 139.27897,60.559551   L 139.51897,60.71955   L 139.75896,60.71955   L 139.99896,60.71955   L 140.23896,60.71955   L 140.47896,60.71955   L 140.71896,60.639551   L 140.95896,60.559551   L 141.19895,60.479552   L 141.35895,60.399553   L 141.51895,60.319553   L 141.67895,60.239554   L 141.83895,60.079555   L 141.91895,59.999556   L 142.07895,59.839557   L 142.15895,59.679558   L 142.31895,59.599559   L 142.39895,59.43956   L 142.47894,59.279561   L 142.55894,59.119562   L 142.55894,58.959563   L 142.63894,58.559566   L 142.71894,58.239569   L 143.51894,44.479671   L 143.51894,44.159673   L 143.51894,43.919675   L 143.51894,43.599677   L 143.51894,43.439678   L 143.43894,43.19968   L 143.35894,42.959682   L 143.35894,42.879682   L 143.27894,42.799683   L 143.19894,42.639684   L 143.19894,42.559685   L 143.11894,42.479685   L 143.11894,42.399686   L 143.03894,42.319687   L 142.95894,42.159688   L 142.79894,41.999689   L 142.63894,41.759691   L 142.47894,41.599692   L 142.23895,41.439693   L 142.07895,41.199695   L 141.75895,41.039696   L 130.71903,32.799757   L 130.55903,32.719758   L 130.39903,32.559759   L 130.23904,32.479759   L 130.07904,32.39976   L 129.91904,32.39976   L 129.75904,32.319761   L 129.51904,32.239761   L 129.35904,32.239761   L 129.19904,32.239761   L 128.95904,32.239761   L 128.79905,32.239761   L 128.63905,32.239761   L 128.47905,32.319761   L 128.31905,32.39976   L 128.15905,32.39976   L 127.99905,32.479759   L 127.75905,32.639758   L 127.51906,32.719758   L 127.27906,32.879756   L 127.11906,33.119755   L 126.95906,33.279753   L 126.79906,33.439752   L 126.71906,33.679751   L 126.63906,33.919749   L 126.55906,34.159747   L 126.47906,34.399745   L 126.47906,34.639743   L 126.47906,34.799742   L 126.47906,35.03974   L 126.55906,35.279739   L 126.63906,35.599736   L 126.71906,35.839735   L 126.79906,35.919734   L 126.87906,35.999733   L 126.95906,36.159732   L 127.11906,36.319731   L 127.19906,36.47973   L 127.35906,36.559729   L 127.43906,36.719728   L 127.59905,36.799727   z "
     id="path822" />
  <path
     style="fill:#6492a7;fill-rule:evenodd;fill-opacity:1;stroke:none;"
     d="  M 151.43888,39.039711   L 151.35888,51.999615   L 150.07889,51.999615   L 150.15889,39.359708   z  M 150.07889,51.999615   L 150.07889,51.999615   L 150.71888,51.999615   z  M 151.35888,51.999615   L 151.35888,52.239613   L 151.35888,52.399612   L 151.35888,52.479611   L 151.35888,52.559611   L 150.23889,52.959608   L 150.15889,52.799609   L 150.07889,52.559611   L 150.07889,52.319612   L 150.07889,51.999615   z  M 151.35888,52.559611   L 151.43888,52.799609   L 151.43888,52.959608   L 150.23889,53.119607   L 150.23889,53.039607   L 150.23889,52.959608   z  M 150.23889,53.119607   L 150.07889,52.319612   L 150.23889,53.119607   L 150.87888,53.039607   z  M 151.43888,52.959608   L 151.43888,52.959608   L 151.43888,53.039607   L 150.39889,53.519604   L 150.31889,53.439604   L 150.31889,53.359605   L 150.23889,53.279605   L 150.23889,53.119607   z  M 151.43888,53.039607   L 151.59888,53.199606   L 151.67888,53.359605   L 151.75888,53.519604   L 151.91887,53.599603   L 151.11888,54.479596   L 150.87888,54.319598   L 150.71888,54.079599   L 150.47889,53.839601   L 150.39889,53.519604   z  M 151.11888,54.479596   L 150.87888,54.319598   L 151.11888,54.479596   L 151.51888,54.079599   z  M 151.91887,53.599603   L 152.07887,53.759602   L 152.23887,53.839601   L 152.39887,53.919601   L 152.55887,53.9996   L 152.15887,55.119592   L 151.83888,55.039592   L 151.59888,54.879593   L 151.35888,54.719595   L 151.11888,54.479596   z  M 152.55887,53.9996   L 152.71887,54.079599   L 152.95887,54.159599   L 153.11887,54.159599   L 153.27886,54.159599   L 153.43886,54.159599   L 153.59886,54.079599   L 153.75886,53.9996   L 153.91886,53.9996   L 154.47886,55.039592   L 154.39886,55.119592   L 154.23886,55.199591   L 154.07886,55.199591   L 153.91886,55.279591   L 153.75886,55.279591   L 153.59886,55.35959   L 153.43886,55.35959   L 153.35886,55.35959   L 153.19887,55.35959   L 153.03887,55.35959   L 152.87887,55.35959   L 152.71887,55.279591   L 152.39887,55.199591   L 152.15887,55.119592   z  M 153.91886,53.9996   L 153.91886,53.9996   L 153.99886,53.9996   L 154.47886,55.039592   z  M 153.99886,53.9996   L 154.07886,53.919601   L 154.23886,53.839601   L 154.31886,53.759602   L 154.39886,53.679602   L 155.19885,54.639595   L 155.03885,54.719595   L 154.87885,54.879593   L 154.71885,54.959593   L 154.47886,55.039592   z  M 154.39886,53.679602   L 154.47886,53.599603   L 154.55886,53.519604   L 154.71885,53.359605   L 154.79885,53.279605   L 155.75885,53.919601   L 155.67885,54.159599   L 155.51885,54.319598   L 155.35885,54.479596   L 155.19885,54.639595   z  M 154.79885,53.279605   L 154.87885,53.119607   L 154.95885,52.959608   L 155.03885,52.879608   L 155.11885,52.719609   L 156.23884,53.119607   L 156.15884,53.279605   L 156.07884,53.519604   L 155.91885,53.759602   L 155.75885,53.919601   z  M 155.11885,52.719609   L 154.63885,53.919601   L 155.11885,52.719609   L 155.67885,52.879608   z  M 155.11885,52.719609   L 155.11885,52.559611   L 155.11885,52.479611   L 155.19885,52.319612   L 155.19885,52.159614   L 156.39884,52.159614   L 156.39884,52.399612   L 156.39884,52.63961   L 156.31884,52.879608   L 156.23884,53.119607   z  M 155.19885,52.159614   L 155.19885,52.159614   L 155.75885,52.159614   z  M 155.19885,52.159614   L 155.91885,38.479715   L 157.19884,38.479715   L 156.39884,52.159614   z  M 157.19884,38.479715   L 157.19884,38.479715   L 156.55884,38.479715   z  M 155.91885,38.479715   L 155.91885,37.439723   L 157.19884,37.439723   L 157.19884,38.479715   z  M 157.11884,37.279724   L 157.19884,37.359723   L 157.19884,37.439723   L 156.55884,37.439723   z  M 155.91885,37.519722   L 155.91885,37.359723   L 155.83885,37.119725   L 157.03884,36.799727   L 157.03884,36.959726   L 157.11884,37.039726   L 157.11884,37.199724   L 157.11884,37.279724   z  M 155.83885,37.119725   L 155.75885,36.959726   L 155.75885,36.799727   L 156.87884,36.319731   L 156.87884,36.47973   L 156.95884,36.559729   L 156.95884,36.719728   L 157.03884,36.799727   z  M 156.87884,36.239732   L 156.87884,36.319731   L 156.87884,36.319731   L 156.31884,36.559729   z  M 155.75885,36.799727   L 155.59885,36.639729   L 155.51885,36.39973   L 156.55884,35.759735   L 156.63884,35.919734   L 156.71884,35.999733   L 156.79884,36.159732   L 156.87884,36.239732   z  M 155.51885,36.39973   L 155.35885,36.239732   L 155.27885,36.079733   L 156.31884,35.439737   L 156.39884,35.599736   L 156.55884,35.759735   z  M 156.23884,35.279739   L 156.31884,35.359738   L 156.31884,35.439737   L 155.75885,35.759735   z  M 155.35885,36.159732   L 155.19885,35.999733   L 154.95885,35.839735   L 154.71885,35.679736   L 154.55886,35.519737   L 155.27885,34.559744   L 155.51885,34.719743   L 155.75885,34.959741   L 155.99884,35.11974   L 156.23884,35.279739   z  M 155.27885,34.559744   L 155.35885,34.559744   L 155.27885,34.559744   L 154.87885,35.03974   z  M 154.55886,35.519737   L 143.43894,27.279798   L 144.15893,26.319805   L 155.27885,34.559744   z  M 144.07893,26.239806   L 144.07893,26.239806   L 144.15893,26.319805   L 143.75894,26.799801   z  M 143.51894,27.279798   L 143.35894,27.199799   L 143.19894,27.119799   L 143.03894,27.0398   L 142.95894,27.0398   L 143.35894,25.919808   L 143.51894,25.999807   L 143.75894,26.079807   L 143.91893,26.159806   L 144.07893,26.239806   z  M 142.95894,27.0398   L 142.79894,26.9598   L 142.63894,26.9598   L 142.47894,26.879801   L 142.31895,26.879801   L 142.47894,25.67981   L 142.71894,25.67981   L 142.95894,25.759809   L 143.11894,25.839809   L 143.35894,25.919808   z  M 142.31895,26.879801   L 142.23895,26.879801   L 142.07895,26.879801   L 141.91895,26.879801   L 141.75895,26.879801   L 141.59895,25.67981   L 141.75895,25.67981   L 141.99895,25.67981   L 142.23895,25.67981   L 142.47894,25.67981   z  M 141.75895,26.879801   L 141.59895,26.9598   L 141.51895,26.9598   L 141.35895,27.0398   L 141.19895,27.0398   L 140.71896,25.999807   L 140.95896,25.919808   L 141.11895,25.839809   L 141.35895,25.759809   L 141.59895,25.67981   z  M 140.71896,25.999807   L 140.71896,25.999807   L 140.71896,25.999807   L 140.95896,26.559803   z  M 141.27895,27.0398   L 141.03896,27.199799   L 140.87896,27.279798   L 140.79896,27.359797   L 140.63896,27.519796   L 139.75896,26.639803   L 139.91896,26.479804   L 140.15896,26.319805   L 140.39896,26.159806   L 140.71896,25.999807   z  M 140.63896,27.519796   L 140.55896,27.599796   L 140.47896,27.759794   L 140.39896,27.919793   L 140.31896,28.079792   L 139.11897,27.679795   L 139.19897,27.519796   L 139.27897,27.439797   L 139.27897,27.279798   L 139.35897,27.119799   L 139.43897,27.0398   L 139.51897,26.879801   L 139.67897,26.799801   L 139.75896,26.639803   z  M 140.31896,28.079792   L 140.31896,28.079792   L 140.31896,28.079792   L 139.75896,27.839794   z  M 140.31896,28.079792   L 140.23896,28.239791   L 140.15896,28.479789   L 140.15896,28.639788   L 140.15896,28.799787   L 138.95897,28.799787   L 138.95897,28.639788   L 138.95897,28.559788   L 138.95897,28.39979   L 138.95897,28.239791   L 139.03897,27.919793   L 139.19897,27.679795   z  M 140.15896,28.799787   L 140.15896,28.959785   L 140.23896,29.119784   L 140.23896,29.359783   L 140.31896,29.519781   L 139.19897,29.999778   L 139.19897,29.839779   L 139.11897,29.67978   L 139.03897,29.599781   L 139.03897,29.439782   L 138.95897,29.279783   L 138.95897,29.119784   L 138.95897,28.959785   L 138.95897,28.799787   z  M 139.27897,30.159777   L 139.27897,30.079777   L 139.19897,29.999778   L 139.83896,29.75978   z  M 140.31896,29.439782   L 140.47896,29.67978   L 140.63896,29.839779   L 139.75896,30.719772   L 139.59897,30.559774   L 139.51897,30.399775   L 139.35897,30.239776   L 139.27897,30.159777   z  M 140.63896,29.839779   L 140.79896,29.999778   L 140.87896,30.159777   L 139.91896,30.959771   L 139.83896,30.799772   L 139.75896,30.719772   z  M 140.87896,30.159777   L 141.59895,30.959771   L 140.87896,30.159777   L 140.39896,30.559774   z  M 140.87896,30.159777   L 140.95896,30.319775   L 141.11895,30.399775   L 140.23896,31.279768   L 140.07896,31.119769   L 139.91896,30.959771   z  M 140.23896,31.279768   L 140.23896,31.279768   L 140.23896,31.279768   L 140.63896,30.799772   z  M 141.03896,30.399775   L 151.19888,38.639714   L 150.15889,39.359708   L 140.23896,31.279768   z  M 151.19888,38.639714   L 151.43888,38.799713   L 151.43888,39.039711   L 150.15889,39.359708   z "
     id="path824" />
  <path
     style="fill:#6492a7;fill-rule:evenodd;fill-opacity:1;stroke:none;"
     d="  M 138.31898,45.119666   L 138.23898,57.99957   L 136.95899,57.99957   L 137.03898,45.359664   z  M 136.95899,57.99957   L 136.95899,57.99957   L 137.59898,57.99957   z  M 138.23898,57.99957   L 138.23898,58.159569   L 138.23898,58.319568   L 137.03898,58.479567   L 137.03898,58.399567   L 137.03898,58.239569   L 136.95899,58.07957   L 136.95899,57.99957   z  M 138.23898,58.319568   L 138.31898,58.479567   L 138.31898,58.639566   L 137.11898,58.879564   L 137.11898,58.879564   L 137.11898,58.799564   L 137.03898,58.639566   L 137.03898,58.479567   z  M 138.31898,58.639566   L 138.31898,58.719565   L 138.31898,58.799564   L 137.11898,58.879564   z  M 138.31898,58.799564   L 138.39897,58.879564   L 138.39897,58.959563   L 137.27898,59.519559   L 137.19898,59.35956   L 137.19898,59.199561   L 137.11898,59.119562   L 137.11898,59.039563   L 137.11898,58.959563   L 137.11898,58.879564   z  M 138.39897,58.959563   L 138.39897,58.959563   L 138.39897,59.039563   L 137.27898,59.519559   z  M 138.39897,59.039563   L 138.47897,59.199561   L 138.63897,59.35956   L 138.71897,59.519559   L 138.87897,59.679558   L 137.99898,60.559551   L 137.91898,60.399553   L 137.83898,60.319553   L 137.67898,60.159554   L 137.59898,60.079555   L 137.43898,59.759557   L 137.27898,59.519559   z  M 137.99898,60.559551   L 137.99898,60.559551   L 137.99898,60.559551   L 138.39897,60.079555   z  M 138.87897,59.679558   L 138.95897,59.759557   L 139.11897,59.839557   L 139.27897,59.999556   L 139.51897,60.079555   L 139.11897,61.199547   L 138.95897,61.119547   L 138.79897,61.039548   L 138.63897,60.959548   L 138.47897,60.879549   L 138.39897,60.79955   L 138.23898,60.71955   L 138.15898,60.639551   L 137.99898,60.559551   z  M 139.51897,60.079555   L 139.51897,60.079555   L 139.51897,60.079555   L 139.27897,60.559551   z  M 139.51897,60.079555   L 139.67897,60.079555   L 139.83896,60.159554   L 139.99896,60.159554   L 140.15896,60.159554   L 140.31896,61.359545   L 140.15896,61.359545   L 139.99896,61.359545   L 139.83896,61.359545   L 139.67897,61.359545   L 139.51897,61.279546   L 139.35897,61.279546   L 139.19897,61.199547   L 139.11897,61.199547   z  M 140.15896,60.159554   L 140.39896,60.079555   L 140.55896,60.079555   L 140.79896,59.999556   L 140.95896,59.919556   L 141.43895,61.039548   L 141.19895,61.199547   L 140.87896,61.279546   L 140.55896,61.279546   L 140.31896,61.359545   z  M 140.95896,59.919556   L 140.95896,59.919556   L 140.95896,59.919556   L 141.19895,60.479552   z  M 140.95896,59.919556   L 141.11895,59.839557   L 141.19895,59.839557   L 141.27895,59.759557   L 141.35895,59.679558   L 142.23895,60.559551   L 142.07895,60.71955   L 141.83895,60.79955   L 141.67895,60.959548   L 141.43895,61.039548   z  M 141.35895,59.679558   L 141.51895,59.599559   L 141.59895,59.43956   L 141.67895,59.35956   L 141.75895,59.199561   L 142.79894,59.919556   L 142.63894,60.079555   L 142.55894,60.239554   L 142.39895,60.399553   L 142.23895,60.559551   z  M 142.79894,59.839557   L 142.79894,59.839557   L 142.79894,59.919556   L 141.83895,59.199561   z  M 141.83895,59.199561   L 141.83895,59.119562   L 141.91895,59.039563   L 141.99895,58.879564   L 141.99895,58.719565   L 143.19894,59.119562   L 143.11894,59.279561   L 143.03894,59.519559   L 142.95894,59.679558   L 142.79894,59.839557   z  M 141.99895,58.719565   L 141.99895,58.559566   L 142.07895,58.479567   L 142.07895,58.319568   L 142.07895,58.159569   L 143.35894,58.239569   L 143.27894,58.479567   L 143.27894,58.719565   L 143.19894,58.879564   L 143.19894,59.119562   z  M 143.35894,58.239569   L 143.35894,58.239569   L 143.35894,58.239569   L 142.71894,58.239569   z  M 142.07895,58.159569   L 142.87894,44.479671   L 144.07893,44.479671   L 143.35894,58.239569   z  M 144.07893,44.479671   L 144.07893,44.479671   L 143.51894,44.479671   z  M 142.87894,44.479671   L 142.87894,43.439678   L 144.07893,43.439678   L 144.07893,44.479671   z  M 144.07893,43.279679   L 144.07893,43.359679   L 144.07893,43.439678   L 143.51894,43.439678   z  M 142.87894,43.519678   L 142.79894,43.359679   L 142.79894,43.19968   L 142.71894,43.039681   L 142.71894,42.959682   L 143.75894,42.319687   L 143.75894,42.319687   L 143.83893,42.479685   L 143.91893,42.639684   L 143.91893,42.799683   L 143.99893,43.039681   L 144.07893,43.279679   z  M 142.71894,42.959682   L 142.63894,42.799683   L 142.55894,42.719684   L 143.75894,42.319687   z  M 142.55894,42.719684   L 142.55894,42.639684   L 142.47894,42.479685   L 143.51894,41.83969   L 143.59894,41.999689   L 143.67894,42.159688   L 143.75894,42.319687   L 143.75894,42.319687   z  M 142.47894,42.479685   L 142.31895,42.319687   L 142.23895,42.239687   L 143.11894,41.359694   L 143.19894,41.439693   L 143.35894,41.599692   L 143.43894,41.759691   L 143.51894,41.83969   z  M 142.23895,42.239687   L 142.07895,41.999689   L 141.83895,41.83969   L 141.67895,41.679691   L 141.43895,41.519692   L 142.15895,40.5597   L 142.39895,40.719698   L 142.71894,40.959697   L 142.87894,41.119695   L 143.11894,41.359694   z  M 141.43895,41.519692   L 141.43895,41.519692   L 141.75895,41.039696   L 142.15895,40.5597   z  M 141.43895,41.519692   L 130.39903,33.279753   L 131.11903,32.319761   L 142.15895,40.5597   z  M 131.11903,32.319761   L 131.11903,32.319761   L 131.11903,32.319761   L 130.71903,32.799757   z  M 130.39903,33.279753   L 130.23904,33.199754   L 130.07904,33.119755   L 129.99904,33.039755   L 129.83904,32.959756   L 130.31903,31.839764   L 130.47903,31.999763   L 130.71903,32.079762   L 130.87903,32.159762   L 131.11903,32.319761   z  M 129.83904,32.959756   L 129.67904,32.959756   L 129.59904,32.879756   L 129.43904,32.879756   L 129.27904,32.879756   L 129.43904,31.599766   L 129.67904,31.679765   L 129.83904,31.759765   L 130.07904,31.759765   L 130.31903,31.839764   z  M 129.27904,32.879756   L 129.11904,32.799757   L 129.03904,32.799757   L 128.87905,32.879756   L 128.79905,32.879756   L 128.55905,31.679765   L 128.71905,31.599766   L 128.95904,31.599766   L 129.19904,31.599766   L 129.43904,31.599766   z  M 128.79905,32.879756   L 129.19904,32.799757   L 128.79905,32.879756   L 128.63905,32.239761   z  M 128.79905,32.879756   L 128.63905,32.879756   L 128.47905,32.959756   L 128.39905,32.959756   L 128.23905,33.039755   L 127.75905,31.919764   L 127.91905,31.839764   L 128.15905,31.759765   L 128.31905,31.759765   L 128.55905,31.679765   z  M 127.75905,31.919764   L 127.67905,31.919764   L 127.75905,31.919764   L 127.99905,32.479759   z  M 128.23905,33.039755   L 128.07905,33.119755   L 127.83905,33.279753   L 127.67905,33.359753   L 127.59905,33.519752   L 126.71906,32.639758   L 126.79906,32.559759   L 126.87906,32.479759   L 127.03906,32.319761   L 127.11906,32.239761   L 127.27906,32.159762   L 127.43906,32.079762   L 127.59905,31.999763   L 127.75905,31.919764   z  M 127.59905,33.519752   L 127.43906,33.599751   L 127.35906,33.75975   L 127.27906,33.919749   L 127.19906,34.159747   L 126.07907,33.679751   L 126.15907,33.439752   L 126.31906,33.119755   L 126.47906,32.879756   L 126.71906,32.639758   z  M 127.19906,34.159747   L 127.11906,34.319746   L 127.03906,34.479745   L 127.03906,34.639743   L 127.03906,34.799742   L 125.83907,34.879742   L 125.83907,34.719743   L 125.83907,34.559744   L 125.83907,34.399745   L 125.83907,34.239746   L 125.91907,34.159747   L 125.91907,33.999748   L 125.99907,33.839749   L 126.07907,33.679751   z  M 127.03906,34.799742   L 127.11906,34.959741   L 127.11906,35.199739   L 127.19906,35.359738   L 127.27906,35.599736   L 126.15907,36.079733   L 126.07907,35.759735   L 125.91907,35.439737   L 125.91907,35.199739   L 125.83907,34.879742   z  M 126.15907,36.079733   L 126.15907,36.079733   L 126.15907,36.079733   L 126.71906,35.839735   z  M 127.27906,35.519737   L 127.27906,35.599736   L 127.35906,35.679736   L 126.39906,36.39973   L 126.23906,36.239732   L 126.15907,36.079733   z  M 127.35906,35.679736   L 127.43906,35.759735   L 127.51906,35.839735   L 126.63906,36.719728   L 126.55906,36.559729   L 126.39906,36.39973   z  M 127.51906,35.839735   L 127.59905,35.919734   L 127.59905,35.999733   L 126.63906,36.719728   z  M 127.59905,35.999733   L 127.67905,36.079733   L 127.75905,36.159732   L 126.87906,37.039726   L 126.71906,36.799727   L 126.63906,36.719728   z  M 127.75905,36.159732   L 128.63905,36.959726   L 127.75905,36.159732   L 126.95906,36.959726   z  M 127.75905,36.159732   L 127.83905,36.239732   L 127.99905,36.319731   L 127.27906,37.359723   L 127.03906,37.199724   L 126.87906,37.039726   z  M 127.99905,36.319731   L 127.99905,36.319731   L 127.99905,36.319731   L 127.27906,37.359723   z  M 127.99905,36.319731   L 138.07898,44.639669   L 137.03898,45.359664   L 127.27906,37.359723   z  M 138.07898,44.639669   L 138.31898,44.799668   L 138.31898,45.119666   L 137.03898,45.359664   z "
     id="path826" />
  <text
     xml:space="preserve"
     style="font-size:40px;line-height:1.25;font-family:'Gill Sans MT';-inkscape-font-specification:'Gill Sans MT';letter-spacing:0px;word-spacing:0px"
     x="29.248873"
     y="64.549232"
     id="text1"><tspan
       sodipodi:role="line"
       id="tspan1"
       x="29.248873"
       y="64.549232" /></text>
  <text
     xml:space="preserve"
     style="font-size:40px;line-height:1.25;font-family:'Gill Sans MT';-inkscape-font-specification:'Gill Sans MT';letter-spacing:0px;word-spacing:0px"
     x="36.510662"
     y="40.544991"
     id="text2"><tspan
       sodipodi:role="line"
       id="tspan2"
       x="36.510662"
       y="40.544991" /></text>
  <text
     xml:space="preserve"
     style="font-size:40px;line-height:1.25;font-family:'Gill Sans MT';-inkscape-font-specification:'Gill Sans MT';letter-spacing:0px;word-spacing:0px"
     x="24.205963"
     y="31.467752"
     id="text3"><tspan
       sodipodi:role="line"
       id="tspan3"
       x="24.205963"
       y="31.467752" /></text>
  <text
     xml:space="preserve"
     style="font-size:40px;line-height:1.25;font-family:'Gill Sans MT';-inkscape-font-specification:'Gill Sans MT';letter-spacing:0px;word-spacing:0px"
     x="33.68663"
     y="56.077148"
     id="text4"><tspan
       sodipodi:role="line"
       id="tspan4"
       x="33.68663"
       y="56.077148" /></text>
  <text
     xml:space="preserve"
     style="font-size:40px;line-height:1.25;font-family:'Gill Sans MT';-inkscape-font-specification:'Gill Sans MT';letter-spacing:0px;word-spacing:0px"
     x="21.583652"
     y="33.484917"
     id="text5"><tspan
       sodipodi:role="line"
       id="tspan5"
       x="0"
       y="0"
       style="font-style:italic;font-variant:normal;font-weight:bold;font-stretch:normal;font-size:40px;font-family:Sans;-inkscape-font-specification:'Sans, Bold Italic';font-variant-ligatures:normal;font-variant-caps:normal;font-variant-numeric:normal;font-variant-east-asian:normal"><tspan
         style="font-style:italic;font-variant:normal;font-weight:normal;font-stretch:normal;font-size:40px;font-family:Sans;-inkscape-font-specification:'Sans, Italic';font-variant-ligatures:normal;font-variant-caps:normal;font-variant-numeric:normal;font-variant-east-asian:normal"
         id="tspan6" /></tspan></text>
  <text
     xml:space="preserve"
     style="font-style:italic;font-variant:normal;font-weight:bold;font-stretch:normal;font-size:54.6667px;line-height:1.25;font-family:'Gill Sans MT';-inkscape-font-specification:'Gill Sans MT, Bold Italic';font-variant-ligatures:normal;font-variant-caps:normal;font-variant-numeric:normal;font-variant-east-asian:normal;letter-spacing:0px;word-spacing:0px"
     x="-1.0085833"
     y="123.43324"
     id="text7"><tspan
       sodipodi:role="line"
       id="tspan7"
       x="-1.0085833"
       y="123.43324"
       style="font-style:italic;font-variant:normal;font-weight:bold;font-stretch:normal;font-size:54.6667px;font-family:'Gill Sans MT';-inkscape-font-specification:'Gill Sans MT, Bold Italic';font-variant-ligatures:normal;font-variant-caps:normal;font-variant-numeric:normal;font-variant-east-asian:normal">activ<tspan
   style="font-style:italic;font-variant:normal;font-weight:normal;font-stretch:normal;font-size:54.6667px;font-family:'Gill Sans MT';-inkscape-font-specification:'Gill Sans MT, Italic';font-variant-ligatures:normal;font-variant-caps:normal;font-variant-numeric:normal;font-variant-east-asian:normal"
   id="tspan12">industrie</tspan></tspan></text>
  <text
     xml:space="preserve"
     id="text10"
     style="font-size:40px;line-height:1.25;font-family:'Gill Sans MT';-inkscape-font-specification:'Gill Sans MT';letter-spacing:0px;word-spacing:0px;white-space:pre;shape-inside:url(#rect10);display:inline" />
</svg>
